HIERARCHY
ROOT root
{
	OFFSET	0	13.1	24.9
	CHANNELS 6  Xposition Yposition Zposition Xrotation Yrotation Zrotation
	JOINT spine_1
	{
		OFFSET	0	9.99999	0
		CHANNELS 3  Xrotation Yrotation Zrotation
		JOINT spine_2
		{
			OFFSET	0	112	-10
			CHANNELS 3  Xrotation Yrotation Zrotation
			JOINT spine_3
			{
				OFFSET	0	206.5	19.3
				CHANNELS 3  Xrotation Yrotation Zrotation
				JOINT spine_4
				{
					OFFSET	0	110.4	14.6
					CHANNELS 3  Xrotation Yrotation Zrotation
					JOINT neck_1
					{
						OFFSET	0	71.8	-50.3
						CHANNELS 3  Xrotation Yrotation Zrotation
						JOINT neck_2
						{
							OFFSET	0	86.2	-25.8
							CHANNELS 3  Xrotation Yrotation Zrotation
							JOINT head_ee
							{
								OFFSET	0	179.8	-8.7
								CHANNELS 3  Xrotation Yrotation Zrotation
								End Site
								{
									OFFSET	1	0	0
								}
							}
						}
					}
					JOINT left_clavicle
					{
						OFFSET	-43.2	22.4	-70.8
						CHANNELS 3  Xrotation Yrotation Zrotation
						JOINT left_shoulder
						{
							OFFSET	-93.9	-5.79999	48.7
							CHANNELS 3  Xrotation Yrotation Zrotation
							JOINT left_elbow
							{
								OFFSET	-291.4	-30.8	15.2
								CHANNELS 3  Xrotation Yrotation Zrotation
								JOINT left_lowarm_twist
								{
									OFFSET	-110.7	-3.89999	13.6
									CHANNELS 3  Xrotation Yrotation Zrotation
									JOINT left_hand
									{
										OFFSET	-110.7	-3.89999	13.6
										CHANNELS 3  Xrotation Yrotation Zrotation
										JOINT left_ee
										{
											OFFSET	-80.8	-5.10001	12.1
											CHANNELS 3  Xrotation Yrotation Zrotation
											End Site
											{
												OFFSET	1	0	0
											}
										}
									}
								}
							}
						}
					}
					JOINT right_clavicle
					{
						OFFSET	43.2	22.4	-70.8
						CHANNELS 3  Xrotation Yrotation Zrotation
						JOINT right_shoulder
						{
							OFFSET	93.9	-5.79999	48.7
							CHANNELS 3  Xrotation Yrotation Zrotation
							JOINT right_elbow
							{
								OFFSET	291.4	-30.8	15.2
								CHANNELS 3  Xrotation Yrotation Zrotation
								JOINT right_lowarm_twist
								{
									OFFSET	110.7	-3.89999	13.6
									CHANNELS 3  Xrotation Yrotation Zrotation
									JOINT right_hand
									{
										OFFSET	110.7	-3.89999	13.6
										CHANNELS 3  Xrotation Yrotation Zrotation
										JOINT right_ee
										{
											OFFSET	80.8	-5.10001	12.1
											CHANNELS 3  Xrotation Yrotation Zrotation
											End Site
											{
												OFFSET	1	0	0
											}
										}
									}
								}
							}
						}
					}
				}
			}
		}
	}
	JOINT left_hip
	{
		OFFSET	-82.8	-127.5	0.300001
		CHANNELS 3  Xrotation Yrotation Zrotation
		JOINT left_knee
		{
			OFFSET	-28.2	-396.7	2.2
			CHANNELS 3  Xrotation Yrotation Zrotation
			JOINT left_ankle
			{
				OFFSET	-11.7	-411.3	35.4
				CHANNELS 3  Xrotation Yrotation Zrotation
				JOINT left_toes
				{
					OFFSET	0	-60	-88.6
					CHANNELS 3  Xrotation Yrotation Zrotation
					JOINT left_foot_ee
					{
						OFFSET	-22.5	-16.5	-42.2
						CHANNELS 3  Xrotation Yrotation Zrotation
						End Site
						{
							OFFSET	1	0	0
						}
					}
				}
			}
		}
	}
	JOINT right_hip
	{
		OFFSET	82.8	-127.5	0.300001
		CHANNELS 3  Xrotation Yrotation Zrotation
		JOINT right_knee
		{
			OFFSET	28.2	-396.7	2.2
			CHANNELS 3  Xrotation Yrotation Zrotation
			JOINT right_ankle
			{
				OFFSET	11.7	-411.3	35.4
				CHANNELS 3  Xrotation Yrotation Zrotation
				JOINT right_toes
				{
					OFFSET	0	-60	-88.6
					CHANNELS 3  Xrotation Yrotation Zrotation
					JOINT right_foot_ee
					{
						OFFSET	22.5	-16.5	-42.2
						CHANNELS 3  Xrotation Yrotation Zrotation
						End Site
						{
							OFFSET	1	0	0
						}
					}
				}
			}
		}
	}
}
MOTION
Frames: 11
Frame Time: 0.02
3806.92 731.597 -291.141 8.6239 44.9556 -9.83569 -3.4112 0.654953 2.19269 -3.40868 0.514135 2.2299 -3.38422 -0.101065 2.28614 -3.39142 0.261161 2.27343 4.31537 8.15946 0.477309 4.52071 13.6677 0.981838 -0.0 0.0 -0.0 6.72447 -18.0193 12.3315 -0.0232286 3.37647 60.4431 0.74322 -20.2122 0.132471 14.2645 0.28032 -1.79591 1.14421 -7.75112 4.43931 -0.0 0.0 -0.0 13.1938 25.6562 -26.1657 -12.7834 3.75098 -64.9713 0.50368 14.0099 -0.0618888 5.18042 -0.153503 0.643687 -1.69457 6.99961 14.5623 0.0 0.0 0.0 -10.986 31.2583 9.32487 -16.1892 0.321549 2.45534 30.3815 -6.84743 -4.0305 40.0449 -0.0 -0.0 -0.0 0.0 -0.0 26.4203 18.2125 -4.01929 -42.9104 0.662233 -6.40084 20.4835 -26.1741 2.95232 28.1445 -0.0 -0.0 0.0 0.0 0.0 
3799.5 732.09 -287.981 9.94259 44.7383 -11.1986 -3.95568 0.458694 2.3504 -3.95266 0.308246 2.3748 -3.9348 -0.361182 2.36733 -3.94262 0.0171153 2.39465 3.7682 8.14396 0.499062 3.96488 13.6874 1.04975 -0.0 0.0 -0.0 6.00433 -19.2539 10.6731 4.60132 0.177626 62.0765 1.04121 -27.2834 0.252706 15.2974 0.283134 -1.92781 1.035 -7.40584 3.84701 -0.0 0.0 -0.0 13.02 24.3904 -25.9031 -13.3783 3.63974 -65.2523 0.495328 13.7866 -0.0598828 5.26828 -0.155602 0.654715 -1.72589 6.96563 14.7656 0.0 0.0 0.0 -12.5349 30.8603 10.3293 -16.1488 0.321615 2.44914 28.3602 -7.63044 -3.82224 39.7712 -0.0 -0.0 -0.0 0.0 -0.0 27.8807 18.7735 -5.40094 -43.4145 0.69816 -6.46954 19.5337 -26.7291 2.83593 28.1586 -0.0 -0.0 0.0 0.0 0.0 
3795.02 729.64 -287.536 10.7052 44.5179 -11.6134 -4.18504 0.356825 2.42262 -4.1818 0.201992 2.4404 -4.16789 -0.491315 2.39897 -4.1759 -0.106395 2.44643 3.44841 8.1354 0.512336 3.63996 13.6989 1.09044 -0.0 0.0 -0.0 5.24996 -19.8471 8.98996 7.79769 -1.90876 62.6758 1.27863 -32.3485 0.370867 16.0012 0.283688 -2.0177 0.961471 -7.22465 3.42658 -0.0 0.0 -0.0 12.8893 23.4049 -25.7002 -13.9909 3.42803 -65.6269 0.481804 13.4239 -0.0567014 5.36789 -0.157962 0.66722 -1.75259 6.8862 14.9166 0.0 0.0 0.0 -13.5911 30.4369 10.2557 -15.5766 0.322088 2.36136 26.933 -8.20571 -3.67046 39.5508 -0.0 -0.0 -0.0 0.0 -0.0 29.0149 19.3656 -6.07553 -43.6571 0.715669 -6.5025 18.7981 -27.123 2.74388 28.1557 -0.0 -0.0 0.0 0.0 0.0 
3793.79 727.954 -291.558 11.7857 45.5326 -12.114 -4.35082 0.332352 2.43433 -4.34754 0.176823 2.45053 -4.33454 -0.525328 2.40011 -4.34256 -0.139802 2.45292 3.24335 8.12478 0.485201 3.43258 13.7276 1.07634 -0.0 0.0 -0.0 4.48348 -19.8464 7.33455 9.97043 -3.22142 62.4999 1.46639 -35.9927 0.47638 16.4674 0.283448 -2.07724 0.90853 -7.13488 3.10674 -0.0 0.0 -0.0 12.8052 22.6803 -25.574 -14.3826 3.15323 -65.9227 0.472217 13.1662 -0.0544965 5.47649 -0.160509 0.680859 -1.77292 6.80528 15.0224 0.0 0.0 0.0 -13.8672 30.0118 9.86355 -14.6954 0.3211 2.22616 25.9333 -8.65915 -3.56248 39.3858 -0.0 -0.0 -0.0 0.0 -0.0 29.9351 19.768 -6.57554 -43.7108 0.719564 -6.50978 18.2799 -27.3677 2.67779 28.1431 -0.0 -0.0 0.0 0.0 0.0 
3791.96 723.094 -294.019 12.6104 47.3997 -13.1982 -4.42143 0.369456 2.45302 -4.41811 0.212664 2.47154 -4.40327 -0.499807 2.42983 -4.41149 -0.109912 2.47823 3.18144 8.11893 0.454116 3.37061 13.7512 1.0463 -0.0 0.0 -0.0 3.70452 -19.5986 5.67898 11.6506 -4.0568 61.5287 1.62192 -38.7772 0.570838 16.7936 0.282992 -2.1189 0.874342 -7.14157 2.87282 -0.0 0.0 -0.0 12.7645 22.2537 -25.518 -14.6398 2.85132 -66.3192 0.46513 12.9754 -0.0528939 5.61208 -0.163654 0.697894 -1.79702 6.69832 15.1431 0.0 0.0 0.0 -14.1347 29.682 9.49122 -13.548 0.316699 2.05017 25.2334 -8.98151 -3.48571 39.2539 -0.0 -0.0 -0.0 0.0 -0.0 30.6291 20.0453 -6.96224 -43.0358 0.671111 -6.41795 17.9204 -27.5002 2.631 28.1333 -0.0 -0.0 0.0 0.0 0.0 
3784.76 725.058 -300.099 12.5885 48.1963 -14.2534 -4.46612 0.443183 2.6808 -4.46217 0.271762 2.70354 -4.44241 -0.511041 2.6687 -4.45234 -0.0833188 2.71588 3.12235 8.13183 0.435674 3.312 13.7963 1.03139 -0.0 0.0 -0.0 3.71451 -18.074 5.84041 14.1907 -4.80852 60.8939 1.94579 -43.9418 0.785063 16.8876 0.282817 -2.13091 0.854488 -7.5849 2.55044 -0.0 0.0 -0.0 12.6281 21.8818 -25.2346 -15.4871 2.82467 -69.2825 0.369826 10.3817 -0.0335975 5.76529 -0.167159 0.717152 -1.9339 6.46438 15.9967 0.0 0.0 0.0 -14.331 29.4471 8.85826 -11.4934 0.300016 1.73539 23.681 -9.10083 -3.30189 39.1615 -0.0 -0.0 -0.0 0.0 -0.0 32.6507 21.0997 -6.40648 -38.3133 0.362961 -5.7607 16.8343 -27.3097 2.47873 27.8514 -0.0 -0.0 0.0 0.0 0.0 
3786.87 726.921 -310.405 9.54133 49.1241 -10.9262 -4.1653 0.745969 2.76468 -4.16123 0.568605 2.8065 -4.12557 -0.239816 2.85343 -4.13686 0.21365 2.8555 4.20816 8.47981 -0.792401 4.48855 15.3311 -0.440376 -0.0 0.0 -0.0 3.63631 -15.465 5.90404 15.7891 -5.20388 59.9215 2.29317 -48.6355 1.03637 15.178 0.28293 -1.91256 0.821741 -8.57831 1.90626 -0.0 0.0 -0.0 12.5243 21.5029 -25.0263 -16.0519 2.80734 -71.3289 0.353951 9.94518 -0.0307962 6.76601 -0.188782 0.843155 -2.03346 6.25443 16.6016 0.0 0.0 0.0 -12.6304 29.5146 7.76483 -6.79135 0.219458 1.01856 21.4946 -10.0542 -3.04754 38.39 -0.0 -0.0 -0.0 0.0 -0.0 32.4648 20.3869 -7.624 -31.572 0.0193507 -4.78435 17.8384 -26.5569 2.60442 29.4725 -0.0 -0.0 0.0 0.0 0.0 
3779.76 727.852 -313.377 6.68064 49.1037 -8.17554 -3.89942 0.909512 2.76863 -3.89545 0.731566 2.82084 -3.85156 -0.0732371 2.91316 -3.8632 0.387566 2.88822 7.45012 8.17384 -2.61531 7.89593 16.065 -2.92753 -0.0 0.0 -0.0 3.833 -13.578 6.4791 15.8282 -5.34194 58.536 2.5633 -51.7697 1.24399 15.3625 0.283231 -1.93612 1.00003 -9.30309 2.8012 -0.0 0.0 -0.0 12.4936 21.2489 -24.976 -17.0468 2.58523 -72.6753 0.341174 9.59298 -0.0286282 7.59159 -0.204961 0.947373 -2.29435 4.74697 17.7522 0.0 0.0 0.0 -13.0087 29.3916 7.73937 -5.2899 0.181371 0.791295 19.8264 -10.8503 -2.84784 39.0009 -0.0 -0.0 -0.0 0.0 -0.0 32.6316 19.791 -8.63923 -26.1622 -0.171829 -3.97642 18.3676 -26.0343 2.66781 30.7287 -0.0 -0.0 0.0 0.0 0.0 
3770.5 725.383 -321.97 6.91665 49.0271 -7.99017 -3.75041 0.932153 2.79284 -3.74638 0.752623 2.84644 -3.70115 -0.0522825 2.94371 -3.713 0.413077 2.91508 9.71517 7.91785 -3.79139 10.299 16.4727 -4.62563 -0.0 0.0 -0.0 4.11735 -12.2578 7.18209 17.1672 -5.7724 59.1023 2.78348 -54.0389 1.41965 15.5038 0.283411 -1.95417 1.13671 -9.80783 3.50865 -0.0 0.0 -0.0 12.4392 21.2089 -24.8537 -17.8182 2.4392 -73.1376 0.320326 9.01673 -0.0252573 8.28392 -0.217369 1.03494 -2.49076 3.53893 18.5787 0.0 0.0 0.0 -13.6749 29.9663 8.39858 -4.22956 0.15089 0.631425 18.2261 -12.0175 -2.65715 39.161 -0.0 -0.0 -0.0 0.0 -0.0 32.7661 19.3479 -9.3789 -22.3348 -0.260602 -3.39588 18.6712 -25.6979 2.70332 31.5978 -0.0 -0.0 0.0 0.0 0.0 
3754.2 722.198 -321.598 7.26683 48.3542 -7.83093 -3.76806 0.703113 2.85201 -3.76369 0.520286 2.89092 -3.72981 -0.289718 2.92302 -3.74169 0.17535 2.93209 8.25555 7.87016 -4.02593 8.82162 16.7407 -4.72624 -0.0 0.0 -0.0 4.20162 -9.653 7.54743 18.1208 -6.01108 59.4776 2.95623 -55.6613 1.56091 15.7393 0.283611 -1.98424 1.25545 -10.421 4.04738 -0.0 0.0 -0.0 12.0798 20.5008 -24.0808 -19.3667 3.95064 -72.298 0.395687 11.0903 -0.038415 8.72266 -0.224685 1.09051 -2.63034 2.68974 19.1662 0.0 0.0 0.0 -16.0772 30.916 10.7235 -3.64757 0.132902 0.543919 17.0503 -12.8405 -2.51285 39.7475 -0.0 -0.0 -0.0 0.0 -0.0 32.902 18.905 -9.5876 -19.5838 -0.300358 -2.97568 18.3002 -24.3382 2.63346 32.2257 -0.0 -0.0 0.0 0.0 0.0 
3744.84 718.922 -322.255 6.78418 47.001 -7.7039 -3.68419 0.547107 2.88819 -3.67962 0.362295 2.91712 -3.65389 -0.445207 2.90563 -3.66567 0.0190647 2.93945 7.2929 7.80835 -4.23806 7.84743 16.908 -4.85233 -0.0 0.0 -0.0 4.08196 -7.82131 7.42474 18.7747 -6.14584 59.7133 3.10365 -56.947 1.68358 15.9336 0.283683 -2.00906 1.34071 -10.8732 4.42838 -0.0 0.0 -0.0 11.831 20.0011 -23.5466 -20.51 4.98505 -71.6403 0.446593 12.4748 -0.0488106 9.03159 -0.22958 1.12966 -2.72812 2.08955 19.5729 0.0 0.0 0.0 -17.7546 31.5729 12.5746 -3.23714 0.119683 0.482317 16.2311 -13.3764 -2.40983 40.146 -0.0 -0.0 -0.0 0.0 -0.0 32.6922 18.8106 -9.15507 -17.8753 -0.314877 -2.71394 18.0283 -23.3939 2.58446 32.6738 -0.0 -0.0 0.0 0.0 0.0 
